# xmcd
#
# Track frame offsets:
# 150
# 22005
# 32111
# 43343
# 52001
# 69995
# 84502
# 105528
# 126956
# 147196
# 158750
# 170722
# 187317
# 203900
# 217483
# 220516
# 232230
# 241605
# 244639
# 259759
# 280499
# 292385
# 295419
# 302401
#
# Disc length: 4109 seconds
#
# Revision: 0
# Processed by: cddbd v1.5.1PL2 Copyright (c) Steve Scherf et al.
# Submitted via: Audion 3.0.2 (http://www.panic.com/audion/)
#
DISCID=83100b18
DTITLE=Various Artist - i'll fly away 
DYEAR=1900
DGENRE=
TTITLE0=i'll fly away
TTITLE1=i'll fly away
TTITLE2=i'll fly away
TTITLE3=i'll fly away
TTITLE4=i'll fly away
TTITLE5=i'll fly away
TTITLE6=i'll fly away
TTITLE7=i'll fly away
TTITLE8=i'll fly away
TTITLE9=i'll fly away
TTITLE10=i'll fly away
TTITLE11=i'll fly away
TTITLE12=i'll fly away
TTITLE13=i'll fly away
TTITLE14=i'll fly away
TTITLE15=i'll fly away
TTITLE16=i'll fly away
TTITLE17=i'll fly away
TTITLE18=i'll fly away
TTITLE19=i'll fly away
TTITLE20=i'll fly away
TTITLE21=i'll fly away
TTITLE22=i'll fly away
TTITLE23=i'll fly away
EXTD=
EXTT0=
EXTT1=
EXTT2=
EXTT3=
EXTT4=
EXTT5=
EXTT6=
EXTT7=
EXTT8=
EXTT9=
EXTT10=
EXTT11=
EXTT12=
EXTT13=
EXTT14=
EXTT15=
EXTT16=
EXTT17=
EXTT18=
EXTT19=
EXTT20=
EXTT21=
EXTT22=
EXTT23=
PLAYORDER=
